TITLE: ShortsClipper Highlights
FCM: NON-DROP FRAME

001  001      V     C        00:00:00:00 00:00:03:13 00:00:00:00 00:00:03:13
* FROM CLIP NAME: Highlight_01_High_sadness
* COMMENT: どうかな? 似えてるかな?

002  001      V     C        00:00:04:07 00:00:27:11 00:00:10:00 00:00:33:04
* FROM CLIP NAME: Highlight_02_High_sadness
* COMMENT: じゃあ、今日は今まで1週間ぐらい? 大体10時間ぐらい! クロードコードを触ってみて、 ま、分かったことをまとめて発表します。 パチパチパチパチ一人便教会みたいな感じですよね。 じゃあタイトルはクロー

003  001      V     C        00:01:12:03 00:01:30:26 00:00:20:00 00:00:38:22
* FROM CLIP NAME: Highlight_03_High_sadness
* COMMENT: 普通に自然連合でいえば 全部設定してくれる これだけでプログランニングできる その今までできなかった人が どれだけそのできるようになるかって すごいことですよね

004  001      V     C        00:02:01:07 00:02:09:22 00:00:30:00 00:00:38:15
* FROM CLIP NAME: Highlight_04_High_sadness
* COMMENT: 開発ではどうしても同時に開発と同時にドキューメントをかけないんで

005  001      V     C        00:04:33:22 00:04:42:09 00:00:40:00 00:00:48:17
* FROM CLIP NAME: Highlight_05_High_sadness
* COMMENT: で すごい細かいところでは 何ではなくタイテストを使うみたいなね

006  001      V     C        00:07:51:27 00:07:54:23 00:00:50:00 00:00:52:26
* FROM CLIP NAME: Highlight_06_High_sadness
* COMMENT: いいですか?

007  001      V     C        00:07:56:29 00:08:12:01 00:01:00:00 00:01:15:02
* FROM CLIP NAME: Highlight_07_High_sadness
* COMMENT: 素晴らしいアイデアです とか、完璧に動作しています。とか、報告してくるんですけど、基本的にLLMのハルシネーションだと思った方がいいです。

008  001      V     C        00:08:11:01 00:08:19:15 00:01:10:00 00:01:18:14
* FROM CLIP NAME: Highlight_08_High_sadness
* COMMENT: 実際の実行結果とか、デストコードの実行結果を確認しましょう。

009  001      V     C        00:09:42:10 00:09:59:05 00:01:20:00 00:01:36:24
* FROM CLIP NAME: Highlight_09_High_sadness
* COMMENT: クロードドドMDに オトコンパクティングドア ドキュメント読み直すとかのシース用 入れるといいかもしれないんですけど プラチュトまだ検証できてないので ちょっとの地方ド検証できたらですね

010  001      V     C        00:10:59:16 00:11:13:12 00:01:30:00 00:01:43:26
* FROM CLIP NAME: Highlight_10_High_sadness
* COMMENT: フロードコードと、上手に好きようために、ここからは、 ポジティブに、あの、どこやっていけばいいか、話していきたいと思います。

011  001      V     C        00:13:12:05 00:13:34:23 00:01:40:00 00:02:02:18
* FROM CLIP NAME: Highlight_11_High_sadness
* COMMENT: 次、モノリポジトリーの場合 えーと、もともとクロードコードは エンプアームけで、大規模開発全てにしてるので モノリポジトリーの対応はかなりしっかりやってます で、公式ドキュメントのメモリカンリーの項目

012  001      V     C        00:14:18:17 00:14:24:21 00:01:50:00 00:01:56:03
* FROM CLIP NAME: Highlight_12_High_sadness
* COMMENT: これはすごく大切なことなんです

013  001      V     C        00:15:57:00 00:16:05:01 00:02:00:00 00:02:08:01
* FROM CLIP NAME: Highlight_13_High_sadness
* COMMENT: 次 クローアダコアダの設計モード これは最近できたところですね

014  001      V     C        00:17:53:22 00:18:11:09 00:02:10:00 00:02:27:17
* FROM CLIP NAME: Highlight_14_High_sadness
* COMMENT: テストコードを書いてテスト失敗して 実装コードを書いてテスト成功っていうサイトロー回すっていう KDDは絶対争いに洗っても書いてあります

015  001      V     C        00:19:51:14 00:20:03:00 00:02:20:00 00:02:31:16
* FROM CLIP NAME: Highlight_15_High_sadness
* COMMENT: はい、片手でお心配です さあ、これでプロードコードはもうほぼ完璧に使えると思うので、 実施を持って使ってください

