TITLE: ShortsClipper Highlights
FCM: NON-DROP FRAME

001  001      V     C        00:04:06:09 00:04:30:28 00:00:00:00 00:00:24:18
* FROM CLIP NAME: Highlight_01_High_sadness
* COMMENT: スタフのアイスクリームを使って、アイスクリームを使って、アイスクリームを使って、アイスクリームを使って、アイスクリームを使って、アイスクリームを使って、アイスクリームを使って、アイスクリームを使って、

002  001      V     C        00:04:45:02 00:05:00:27 00:00:10:00 00:00:25:25
* FROM CLIP NAME: Highlight_02_High_sadness
* COMMENT: さあ、このステージは、このステージのステージのステージのステージのステージのステージのステージのステージのステージのステージのステージのステージのステージのステージのステージのステージのステージのステ

003  001      V     C        00:05:30:16 00:06:08:15 00:00:20:00 00:00:57:29
* FROM CLIP NAME: Highlight_03_High_sadness
* COMMENT: 今日は、きてくれているかな人が、人がいない。 でも、気にせず進めます。 じゃあ、今日、今までやってきたのは、 クロードコードの技術調査で、 あと、基本的なときを練と読むで、 コスキのシュートリアルを進

004  001      V     C        00:06:11:28 00:06:22:01 00:00:30:00 00:00:40:02
* FROM CLIP NAME: Highlight_04_High_sadness
* COMMENT: コーディングとレストを分けるといいみたいな話があったんだよね

005  001      V     C        00:06:50:26 00:06:59:05 00:00:40:00 00:00:48:09
* FROM CLIP NAME: Highlight_05_High_sadness
* COMMENT: ぼっと、ぼっと、ピターのトラトラってよりは前だったいの、聞かしく?

006  001      V     C        00:07:21:02 00:07:48:05 00:00:50:00 00:01:17:03
* FROM CLIP NAME: Highlight_06_High_sadness
* COMMENT: 単索計画コーディング まず プロードに関連する なんたら関たら私で指示します コードを書かないようにねえ 時的に指示します こういう事で えっと

007  001      V     C        00:08:13:20 00:08:20:20 00:01:00:00 00:01:07:00
* FROM CLIP NAME: Highlight_07_High_sadness
* COMMENT: じゃあ、ハーミト もう、 ミト?

008  001      V     C        00:08:46:16 00:08:58:20 00:01:10:00 00:01:22:04
* FROM CLIP NAME: Highlight_08_High_sadness
* COMMENT: 2シュープで 別にどういうことしてて ミブハイシー

009  001      V     C        00:08:58:15 00:09:28:27 00:01:20:00 00:01:50:12
* FROM CLIP NAME: Highlight_09_High_sadness
* COMMENT: なっているか 2秒を詳細に ショート動画を作成したいに 見えて、と何両的に一応、 カルトコードや、会場が高い もうきっと、ね、

010  001      V     C        00:09:33:27 00:09:50:03 00:01:30:00 00:01:46:05
* FROM CLIP NAME: Highlight_10_High_sadness
* COMMENT: その前後の文役が分かるサウンドでキートレールと嬉しい

011  001      V     C        00:09:50:03 00:10:14:25 00:01:40:00 00:02:04:21
* FROM CLIP NAME: Highlight_11_High_sadness
* COMMENT: あとは、できるだけ自動がしたいので、その方法を調べて、 で、と、検討してください で、コードはまだかかえない

012  001      V     C        00:10:14:04 00:10:43:19 00:01:50:00 00:02:19:15
* FROM CLIP NAME: Highlight_12_High_sadness
* COMMENT: かかえない これー あ、なんか色々考えてくれてるっぽいから ちょっとコンソロー大きくしてみてみよう

013  001      V     C        00:10:43:01 00:10:51:19 00:02:00:00 00:02:08:18
* FROM CLIP NAME: Highlight_13_High_sadness
* COMMENT: ぽっ、こうちょっと、大きく 見るかしら?これ

014  001      V     C        00:11:10:03 00:12:23:21 00:02:10:00 00:03:23:18
* FROM CLIP NAME: Highlight_14_High_sadness
* COMMENT: の方からんっていくと ユンサーは YouTubeライブ配信から ショート動画を自動作詞したいと どう思っています 具体的には 意義のあるところ 感情が起こったところ その線部のとんみくが もする範囲で

015  001      V     C        00:12:23:11 00:13:00:29 00:02:20:00 00:02:57:18
* FROM CLIP NAME: Highlight_15_High_sadness
* COMMENT: Mib-SARC2Lを使って最新の情報を収集する必要がありそうです YouTubeライブ配信から自動でショート動画を写整するシステムを検討します 調査と検討を進めるための助クを整理します YouTub

